<svg xmlns="http://www.w3.org/2000/svg" viewBox="0 0 178.53 104.03"><defs><style>.cls-1{fill:#3ed8d2;}.cls-2{fill:#6ee2dd;}.cls-3{fill:#d3d3d3;}.cls-4{fill:#fff;opacity:0.25;isolation:isolate;}</style></defs><title>Element 2</title><g id="Ebene_2" data-name="Ebene 2"><g id="Layer_1" data-name="Layer 1"><path class="cls-1" d="M124.52,20.62c1.4-2,1.2-2.9,1.2-2.9s.2-.9-1.2-2.9-15-13.6-15.7-14-28.5-2.2-31.4,1.3-2.6,15.6-2.6,15.6-.3,12.1,2.6,15.6,30.7,1.7,31.4,1.3S123.12,22.62,124.52,20.62Z"/><path class="cls-2" d="M124.52,20.62c1.4-2,1.2-2.9,1.2-2.9s.2-.9-1.2-2.9c-.9-1.3-6.9-6.6-11.2-10.3a27.84,27.84,0,0,0-3.4,13.2,26.73,26.73,0,0,0,3.4,13.2C117.62,27.22,123.62,21.92,124.52,20.62Z"/><path class="cls-1" d="M20.62,1.32c-2-1.4-2.9-1.2-2.9-1.2s-.9-.2-2.9,1.2S1.22,16.32.82,17s-2.2,28.5,1.3,31.4S17.72,51,17.72,51s12.1.3,15.6-2.6S35,17.72,34.62,17,22.62,2.62,20.62,1.32Z"/><path class="cls-2" d="M20.62,1.32c-2-1.4-2.9-1.2-2.9-1.2s-.9-.2-2.9,1.2c-1.3.9-6.6,6.9-10.3,11.2a27.84,27.84,0,0,0,13.2,3.4,26.73,26.73,0,0,0,13.2-3.4C27.22,8.12,21.92,2.12,20.62,1.32Z"/><path class="cls-1" d="M52.22,49.82c2,1.4,2.9,1.2,2.9,1.2s.9.2,2.9-1.2,13.6-15,14-15.7,2.2-28.5-1.3-31.4S55.12.12,55.12.12,43-.18,39.52,2.72s-1.7,30.7-1.3,31.4S50.22,48.42,52.22,49.82Z"/><path class="cls-2" d="M52.22,49.82c2,1.4,2.9,1.2,2.9,1.2s.9.2,2.9-1.2c1.3-.9,6.6-6.9,10.3-11.2a27.84,27.84,0,0,0-13.2-3.4,26.73,26.73,0,0,0-13.2,3.4C45.62,42.92,50.92,48.92,52.22,49.82Z"/><path class="cls-1" d="M175.92,2.32c-2.9-3.5-30.7-1.7-31.4-1.3s-14.3,12-15.7,14-1.2,2.9-1.2,2.9-.2.9,1.2,2.9,15,13.6,15.7,14,28.5,2.2,31.4-1.3,2.6-15.6,2.6-15.6S178.72,5.82,175.92,2.32Z"/><path class="cls-2" d="M140,4.72c-4.3,3.7-10.3,9-11.2,10.3-1.4,2-1.2,2.9-1.2,2.9s-.2.9,1.2,2.9c.9,1.3,6.9,6.6,11.2,10.3a27.84,27.84,0,0,0,3.4-13.2A27.84,27.84,0,0,0,140,4.72Z"/><path class="cls-3" d="M124.52,73.62c1.4-2,1.2-2.9,1.2-2.9s.2-.9-1.2-2.9-15-13.6-15.7-14-28.5-2.2-31.4,1.3-2.6,15.6-2.6,15.6-.3,12.1,2.6,15.6,30.7,1.7,31.4,1.3S123.12,75.62,124.52,73.62Z"/><path class="cls-4" d="M124.52,73.62c1.4-2,1.2-2.9,1.2-2.9s.2-.9-1.2-2.9c-.9-1.3-6.9-6.6-11.2-10.3a27.84,27.84,0,0,0-3.4,13.2,26.73,26.73,0,0,0,3.4,13.2C117.62,80.22,123.62,74.92,124.52,73.62Z"/><path class="cls-3" d="M20.62,54.32c-2-1.4-2.9-1.2-2.9-1.2s-.9-.2-2.9,1.2S1.22,69.32.82,70s-2.2,28.5,1.3,31.4,15.6,2.6,15.6,2.6,12.1.3,15.6-2.6S35,70.72,34.62,70,22.62,55.62,20.62,54.32Z"/><path class="cls-4" d="M20.62,54.32c-2-1.4-2.9-1.2-2.9-1.2s-.9-.2-2.9,1.2c-1.3.9-6.6,6.9-10.3,11.2a27.84,27.84,0,0,0,13.2,3.4,26.73,26.73,0,0,0,13.2-3.4C27.22,61.12,21.92,55.12,20.62,54.32Z"/><path class="cls-3" d="M52.22,102.82c2,1.4,2.9,1.2,2.9,1.2s.9.2,2.9-1.2,13.6-15,14-15.7,2.2-28.5-1.3-31.4-15.6-2.6-15.6-2.6-12.1-.3-15.6,2.6-1.7,30.7-1.3,31.4S50.22,101.42,52.22,102.82Z"/><path class="cls-4" d="M52.22,102.82c2,1.4,2.9,1.2,2.9,1.2s.9.2,2.9-1.2c1.3-.9,6.6-6.9,10.3-11.2a27.84,27.84,0,0,0-13.2-3.4,26.73,26.73,0,0,0-13.2,3.4C45.62,95.92,50.92,101.92,52.22,102.82Z"/><path class="cls-3" d="M175.92,55.22c-2.9-3.5-30.7-1.7-31.4-1.3s-14.3,12-15.7,14-1.2,2.9-1.2,2.9-.2.9,1.2,2.9,15,13.6,15.7,14,28.5,2.2,31.4-1.3,2.6-15.6,2.6-15.6S178.72,58.72,175.92,55.22Z"/><path class="cls-4" d="M140,57.62c-4.3,3.7-10.3,9-11.2,10.3-1.4,2-1.2,2.9-1.2,2.9s-.2.9,1.2,2.9c.9,1.3,6.9,6.6,11.2,10.3a27.32,27.32,0,0,0,0-26.4Z"/></g></g></svg>